<svg xmlns="http://www.w3.org/2000/svg" width="64" height="64" viewBox="0 0 64 64">
  <defs>
    <linearGradient id="bg" x1="0" y1="0" x2="1" y2="1">
      <stop offset="0" stop-color="#182433"/>
      <stop offset="1" stop-color="#0b1320"/>
    </linearGradient>
  </defs>
  <rect x="2" y="2" width="60" height="60" rx="15" fill="url(#bg)" stroke="#7bdff2" stroke-width="3"/>

  <!-- ноги и усики -->
  <g stroke="#ff8a5c" stroke-width="3.4" stroke-linecap="round" fill="none">
    <path d="M28 16 Q22 8 18 9"/>
    <path d="M36 16 Q42 8 46 9"/>
    <path d="M27 28 L13 22"/>
    <path d="M37 28 L51 22"/>
    <path d="M26 33 L11 34"/>
    <path d="M38 33 L53 34"/>
    <path d="M27 38 L14 45"/>
    <path d="M37 38 L50 45"/>
  </g>

  <!-- тело: голова, грудь, брюшко -->
  <g fill="#ff6b7d" stroke="#3a1118" stroke-width="1.5">
    <ellipse cx="32" cy="17" rx="8" ry="7"/>
    <ellipse cx="32" cy="30" rx="6.5" ry="7.5"/>
    <ellipse cx="32" cy="46" rx="11" ry="14"/>
  </g>

  <!-- глаза + блик -->
  <circle cx="29" cy="16" r="1.6" fill="#0b1320"/>
  <circle cx="35" cy="16" r="1.6" fill="#0b1320"/>
  <ellipse cx="29" cy="42" rx="3" ry="5" fill="#ff9aa6" opacity="0.6"/>
</svg>
