<svg xmlns="http://www.w3.org/2000/svg" viewBox="0 0 96 96">
  <defs>
    <linearGradient id="crate" x1="18" y1="35" x2="78" y2="82" gradientUnits="userSpaceOnUse">
      <stop stop-color="#ffd166"/>
      <stop offset="1" stop-color="#d9822b"/>
    </linearGradient>
    <linearGradient id="cloth" x1="20" y1="10" x2="76" y2="38" gradientUnits="userSpaceOnUse">
      <stop stop-color="#eef7ff"/>
      <stop offset="1" stop-color="#8bd7ff"/>
    </linearGradient>
  </defs>

  <path d="M48 9c-18 0-29 8-34 22 9-3 17-4 25-2 6-4 12-4 18 0 8-2 16-1 25 2C77 17 66 9 48 9Z" fill="url(#cloth)" stroke="#23445f" stroke-width="3" stroke-linejoin="round"/>
  <path d="M39 29 27 47M57 29l12 18M48 28v20" fill="none" stroke="#d7e4f2" stroke-width="3" stroke-linecap="round"/>

  <rect x="24" y="46" width="48" height="36" rx="5" fill="url(#crate)" stroke="#5f371d" stroke-width="4"/>
  <path d="M24 58h48M36 46v36M60 46v36" stroke="#7a451f" stroke-width="4" stroke-linecap="round"/>
  <path d="M42 58h12v12H42z" fill="#42f5a7" stroke="#1c6b54" stroke-width="3" stroke-linejoin="round"/>
  <path d="M48 55v18M39 64h18" stroke="#113d32" stroke-width="3" stroke-linecap="round"/>
  <path d="M30 76h36" stroke="#fff1b8" stroke-width="3" stroke-linecap="round" opacity=".75"/>
</svg>
