<svg xmlns="http://www.w3.org/2000/svg" width="48" height="48" viewBox="0 0 48 48">
  <defs>
    <linearGradient id="carapace" x1="0" y1="0" x2="1" y2="1">
      <stop offset="0" stop-color="#c8ff8e"/>
      <stop offset="0.45" stop-color="#56c04b"/>
      <stop offset="1" stop-color="#1a6b2e"/>
    </linearGradient>
    <linearGradient id="chitin" x1="0" y1="0" x2="0" y2="1">
      <stop offset="0" stop-color="#9af37a"/>
      <stop offset="1" stop-color="#2c8a3a"/>
    </linearGradient>
  </defs>

  <!-- rear legs -->
  <path d="M13 30 4 34M14 26 3 27M15 22 5 19" stroke="#2b7b36" stroke-width="3" stroke-linecap="round"/>

  <!-- torso and shell (side view) -->
  <ellipse cx="22" cy="25" rx="11" ry="10" fill="url(#chitin)" stroke="#dcffd2" stroke-width="1.6"/>
  <path d="M15 25c0-8 7-14 16-12 4.2 1 7.4 3.7 8.6 7.5 1.2 3.8.1 7.7-3.2 10.8-4.3 4.1-11 4.8-16.7 2.2C16.8 32 15 28.8 15 25Z"
    fill="url(#carapace)" stroke="#e6ffd9" stroke-width="1.8"/>

  <!-- head + jaw -->
  <path d="M31 22c3.5-2.4 8.8-1.3 10.3 2.2 1.5 3.6-1 7.1-5.5 7.6-3 .4-5.8-.9-7.2-3.2"
    fill="#3e9f45" stroke="#d9ffd2" stroke-width="1.5"/>
  <path d="M35.5 28.5 43 31M34.8 25.6 42.7 24.6" stroke="#b8ff84" stroke-width="2.2" stroke-linecap="round"/>

  <!-- front scythe arm -->
  <path d="M30 30c4.3 2.5 6.6 5 9.5 9" stroke="#84ea70" stroke-width="3" stroke-linecap="round"/>

  <!-- spikes -->
  <path d="M19 15 17 10M23 14 23 8M27 14 30 9" stroke="#c7ff99" stroke-width="2" stroke-linecap="round"/>

  <!-- eye -->
  <circle cx="35" cy="23" r="2.2" fill="#0f2c17"/>
  <circle cx="35.6" cy="22.5" r="0.8" fill="#d7ffbe"/>

  <!-- shell streaks -->
  <path d="M19 20c2.7-1.9 6.6-2.4 10.2-1.1M18.5 26c3.8-1.8 8.4-1.8 12 0M19.2 31c3-.8 6.4-.5 9.2.8"
    stroke="#195f2a" stroke-width="1.6" stroke-linecap="round"/>
</svg>
