<svg xmlns="http://www.w3.org/2000/svg" width="288" height="48" viewBox="0 0 288 48">
  <defs>
    <linearGradient id="ground" x1="0" y1="0" x2="1" y2="1">
      <stop offset="0" stop-color="#182433"/>
      <stop offset="1" stop-color="#0f1724"/>
    </linearGradient>
    <linearGradient id="stone" x1="0" y1="0" x2="1" y2="1">
      <stop offset="0" stop-color="#a8b3c1"/>
      <stop offset="1" stop-color="#556171"/>
    </linearGradient>
    <linearGradient id="ore" x1="0" y1="0" x2="1" y2="1">
      <stop offset="0" stop-color="#9df2ff"/>
      <stop offset="1" stop-color="#2e78c7"/>
    </linearGradient>
    <linearGradient id="moss" x1="0" y1="0" x2="1" y2="1">
      <stop offset="0" stop-color="#3a6b54"/>
      <stop offset="1" stop-color="#1e3a30"/>
    </linearGradient>
  </defs>

  <!-- 0: пустая земля -->
  <rect width="48" height="48" fill="url(#ground)"/>
  <path d="M7 15c11-9 23-8 34 0M5 35c12-7 24-8 38-2" fill="none" stroke="#26394e" stroke-width="2" stroke-linecap="round" opacity=".55"/>
  <circle cx="14" cy="28" r="2.4" fill="#32475f" opacity=".7"/>
  <circle cx="36" cy="14" r="1.8" fill="#32475f" opacity=".65"/>

  <!-- 1: камень -->
  <rect x="48" width="48" height="48" fill="url(#ground)"/>
  <path d="M60 14c5-8 19-10 28-2 7 7 4 20-5 24-11 5-26 1-28-9-1-5 1-9 5-13Z" fill="url(#stone)"/>
  <path d="M62 19c9-3 17-3 25 2M66 29c5 3 12 3 18 0" fill="none" stroke="#d8e0e8" stroke-width="3" stroke-linecap="round" opacity=".5"/>

  <!-- 2: руда -->
  <rect x="96" width="48" height="48" fill="url(#ground)"/>
  <path d="M120 6 103 41h34L120 6Z" fill="url(#ore)"/>
  <path d="M119 13 111 34h15l-7-21Z" fill="#d9fbff" opacity=".5"/>
  <path d="M120 6 103 41h34L120 6Z" fill="none" stroke="#88dcff" stroke-width="2"/>

  <!-- 3: трещины -->
  <rect x="144" width="48" height="48" fill="url(#ground)"/>
  <path d="M150 11l11 11-4 9 12 9M183 13l-9 13 7 12" fill="none" stroke="#0b1421" stroke-width="2.6" stroke-linecap="round" opacity=".85"/>
  <path d="M150 11l11 11-4 9 12 9M183 13l-9 13 7 12" fill="none" stroke="#314a64" stroke-width="1" stroke-linecap="round" opacity=".55"/>

  <!-- 4: галька -->
  <rect x="192" width="48" height="48" fill="url(#ground)"/>
  <circle cx="206" cy="16" r="3.2" fill="#3b5169"/>
  <circle cx="223" cy="27" r="4" fill="#445a73"/>
  <circle cx="212" cy="35" r="2.6" fill="#34485f"/>
  <circle cx="229" cy="14" r="2.2" fill="#34485f"/>
  <circle cx="201" cy="31" r="2" fill="#3b5169"/>

  <!-- 5: мох -->
  <rect x="240" width="48" height="48" fill="url(#ground)"/>
  <path d="M252 31c-3-9 5-15 13-14 9 1 14 9 8 16-6 8-18 7-21-2Z" fill="url(#moss)" opacity=".7"/>
  <circle cx="262" cy="24" r="2" fill="#5e9c7d" opacity=".7"/>
  <circle cx="270" cy="31" r="1.6" fill="#5e9c7d" opacity=".55"/>
  <circle cx="256" cy="33" r="1.4" fill="#5e9c7d" opacity=".5"/>
</svg>
